<svg preserveAspectRatio="none" width="1440" height="1088" viewBox="0 0 1440 1088" fill="none" xmlns="http://www.w3.org/2000/svg">
<g filter="url(#filter0_d)">
<path d="M0 0H1440V162C1440 162 1307.5 396.5 729 396.5C150.5 396.5 0 852.056 0 852.056V0Z" fill="url(#paint0_linear)"/>
</g>
<path d="M0 0H1440V132C1440 132 1298.5 302.583 720 302.583C141.5 302.583 0 552.082 0 552.082V0Z" fill="url(#paint1_linear)"/>
<g filter="url(#filter1_d)">
<path d="M1440 1083.5L-1.5 1083.5V1018C-1.5 1018 93.4998 798.992 757 904.5C1420.5 1010.01 1440 259 1440 259V1083.5Z" fill="url(#paint2_linear)"/>
</g>
<defs>
<filter id="filter0_d" x="-8" y="-4" width="1456" height="868.056" filterUnits="userSpaceOnUse" color-interpolation-filters="sRGB">
<feFlood flood-opacity="0" result="BackgroundImageFix"/>
<feColorMatrix in="SourceAlpha" type="matrix" values="0 0 0 0 0 0 0 0 0 0 0 0 0 0 0 0 0 0 127 0"/>
<feOffset dy="4"/>
<feGaussianBlur stdDeviation="4"/>
<feColorMatrix type="matrix" values="0 0 0 0 0 0 0 0 0 0 0 0 0 0 0 0 0 0 0.16 0"/>
<feBlend mode="normal" in2="BackgroundImageFix" result="effect1_dropShadow"/>
<feBlend mode="normal" in="SourceGraphic" in2="effect1_dropShadow" result="shape"/>
</filter>
<filter id="filter1_d" x="-9.5" y="247" width="1457.5" height="840.5" filterUnits="userSpaceOnUse" color-interpolation-filters="sRGB">
<feFlood flood-opacity="0" result="BackgroundImageFix"/>
<feColorMatrix in="SourceAlpha" type="matrix" values="0 0 0 0 0 0 0 0 0 0 0 0 0 0 0 0 0 0 127 0"/>
<feOffset dy="-4"/>
<feGaussianBlur stdDeviation="4"/>
<feColorMatrix type="matrix" values="0 0 0 0 0 0 0 0 0 0 0 0 0 0 0 0 0 0 0.16 0"/>
<feBlend mode="normal" in2="BackgroundImageFix" result="effect1_dropShadow"/>
<feBlend mode="normal" in="SourceGraphic" in2="effect1_dropShadow" result="shape"/>
</filter>
<linearGradient id="paint0_linear" x1="-284.5" y1="1011.5" x2="1631" y2="-110" gradientUnits="userSpaceOnUse">
<stop stop-color="#1396BE"/>
<stop offset="1" stop-color="#0D70D1"/>
</linearGradient>
<linearGradient id="paint1_linear" x1="-276" y1="655" x2="1582.5" y2="-53" gradientUnits="userSpaceOnUse">
<stop stop-color="#107B9C"/>
<stop offset="1" stop-color="#0B62B7"/>
</linearGradient>
<linearGradient id="paint2_linear" x1="729" y1="1084" x2="718.987" y2="517" gradientUnits="userSpaceOnUse">
<stop stop-color="#1396BE"/>
<stop offset="1" stop-color="#2880D6"/>
</linearGradient>
</defs>
</svg>
